<?xml version="1.0" encoding="UTF-8"?>
<svg version="1.1" xmlns="http://www.w3.org/2000/svg" width="3000" height="853">
<path d="M0 0 C25.08 0 50.16 0 76 0 C76 8.58 76 17.16 76 26 C169.72 26 263.44 26 360 26 C360 165.26 360 304.52 360 448 C342.18 448 324.36 448 306 448 C306 456.58 306 465.16 306 474 C281.25 474 256.5 474 231 474 C231 465.42 231 456.84 231 448 C134.31 448 37.62 448 -62 448 C-62 308.74 -62 169.48 -62 26 C-41.54 26 -21.08 26 0 26 C0 17.42 0 8.84 0 0 Z " fill="#474646" transform="translate(295,187)"/>
<path d="M0 0 C0.85214081 -0.00979385 1.70428162 -0.01958771 2.58224487 -0.02967834 C53.78495145 -0.49697625 97.06969545 11.31374319 134.8125 47.23828125 C135.45832031 47.83125 136.10414063 48.42421875 136.76953125 49.03515625 C163.13060332 73.97631109 174.34316194 109.85071933 175.99609375 145.16015625 C176.72022881 184.85979619 162.46366999 220.72946459 135.29296875 249.546875 C133.00550757 252.02886044 130.88526298 254.5760612 128.8125 257.23828125 C129.20405273 257.65489014 129.59560547 258.07149902 129.99902344 258.50073242 C136.64863789 265.57832119 143.29684414 272.65662943 149.875 279.80078125 C154.12908684 284.42071096 158.40106627 289.02334121 162.6875 293.61328125 C163.26556396 294.23259521 163.84362793 294.85190918 164.43920898 295.48999023 C167.51192155 298.78045073 170.58931348 302.06642007 173.671875 305.34765625 C174.3023877 306.02006348 174.93290039 306.6924707 175.58251953 307.38525391 C176.78510056 308.66760603 177.98911529 309.94861573 179.19482422 311.22802734 C187.8125 320.42478656 187.8125 320.42478656 187.8125 322.23828125 C178.98917045 322.47091558 170.16691024 322.64812356 161.34117317 322.75640297 C157.24196503 322.80839808 153.14486804 322.8787999 149.046875 322.99267578 C145.08498597 323.10206907 141.12511453 323.16127011 137.1618309 323.18705368 C135.65700402 323.20540335 134.15227656 323.24123992 132.64831924 323.29558182 C120.91921914 323.70217532 120.91921914 323.70217532 115.71844482 320.08831787 C113.19026051 317.58884009 110.9843935 315.04888979 108.8125 312.23828125 C107.63131589 310.87860198 106.44511623 309.52323099 105.25 308.17578125 C104.70214844 307.53511719 104.15429688 306.89445312 103.58984375 306.234375 C100.87060226 303.18045763 97.93614756 300.35235061 95.0234375 297.484375 C92.31022135 294.72801584 89.80076125 291.83294144 87.3203125 288.8671875 C85.71209955 287.00249385 85.71209955 287.00249385 82.8125 285.23828125 C80.12965682 285.97636938 77.65396952 286.81520993 75.0625 287.80078125 C56.76702224 294.27712267 38.14956534 297.23380953 18.8125 298.23828125 C17.66136719 298.29886719 16.51023437 298.35945313 15.32421875 298.421875 C-30.37856108 299.45094421 -74.8573553 284.88207934 -108.1875 253.23828125 C-108.68894531 252.76938477 -109.19039062 252.30048828 -109.70703125 251.81738281 C-134.38434721 228.6261096 -150.75905536 196.67892918 -152.36450195 162.46630859 C-152.64902581 144.39507629 -152.86932932 126.84996131 -148.1875 109.23828125 C-148.00558105 108.54444336 -147.82366211 107.85060547 -147.63623047 107.13574219 C-137.98763258 71.83515259 -111.31654844 40.93850069 -80.1862793 22.56323242 C-55.76117907 8.6635693 -28.20442907 0.26956033 0 0 Z M-64.86474609 92.67724609 C-81.20840938 111.96506135 -85.609881 135.67469873 -84.1875 160.23828125 C-82.8891181 172.69470654 -78.47219859 183.50256646 -72.1875 194.23828125 C-71.66542969 195.13804687 -71.14335938 196.0378125 -70.60546875 196.96484375 C-57.42970801 217.44564652 -35.43182646 231.3419045 -11.93359375 236.73046875 C-10.57427734 236.98183594 -10.57427734 236.98183594 -9.1875 237.23828125 C-8.20394531 237.42261719 -7.22039062 237.60695313 -6.20703125 237.796875 C-0.32584527 238.60012772 5.63960066 238.42267048 11.5625 238.42578125 C12.77421875 238.43802734 13.9859375 238.45027344 15.234375 238.46289062 C22.65207404 238.47488044 29.57331645 237.87553893 36.8125 236.23828125 C37.1474379 233.01764039 37.1474379 233.01764039 34.43359375 230.6015625 C33.37895292 229.57783674 32.31731703 228.56128413 31.25 227.55078125 C30.13871622 226.47201492 29.02933368 225.39128655 27.921875 224.30859375 C27.38369141 223.78297852 26.84550781 223.25736328 26.29101562 222.71582031 C23.84746179 220.27388045 21.62476507 217.6594642 19.38671875 215.03125 C17.25617018 212.60464505 14.95747053 210.37110223 12.65356445 208.1105957 C10.88381394 206.31080567 9.23035117 204.45726523 7.5859375 202.54296875 C3.81571445 198.20651443 -0.10488127 194.02838679 -4.0625 189.86328125 C-8.41501388 185.27988746 -12.72271553 180.66579245 -16.94580078 175.96240234 C-17.74382111 175.07410736 -18.54184143 174.18581238 -19.36404419 173.27059937 C-19.96578461 172.59993439 -20.56752502 171.92926941 -21.1875 171.23828125 C-12.54669249 170.93520724 -3.90774975 170.70518102 4.73723888 170.56472301 C8.75310426 170.49725674 12.76530001 170.4060125 16.77905273 170.25756836 C46.34450728 169.19212866 46.34450728 169.19212866 53.65083313 175.73628235 C56.05742289 178.41989756 57.92002449 181.16393623 59.8125 184.23828125 C61.0557558 185.6996979 62.31960791 187.14458955 63.625 188.55078125 C64.14707031 189.16566406 64.66914062 189.78054688 65.20703125 190.4140625 C67.6126411 193.14744401 70.22294578 195.66131945 72.82421875 198.20703125 C75.48006326 200.92027122 77.88146999 203.81990689 80.26953125 206.76953125 C81.81961395 208.58301725 81.81961395 208.58301725 84.8125 208.23828125 C100.33919694 193.29684783 106.84241927 171.68491902 107.76953125 150.77294922 C108.16227021 127.60581329 100.52636052 105.50490409 84.3918457 88.68994141 C73.13968803 77.40051906 60.7834276 68.98024774 45.6875 63.86328125 C44.98423584 63.62456299 44.28097168 63.38584473 43.55639648 63.13989258 C33.22123206 59.85935881 22.86420836 58.86921088 12.0625 58.92578125 C10.92506348 58.9314209 9.78762695 58.93706055 8.61572266 58.94287109 C-20.29767913 59.35785668 -45.36129133 71.20303444 -64.86474609 92.67724609 Z " fill="#464646" transform="translate(1841.1875,270.76171875)"/>
<path d="M0 0 C23.43 -0.061875 46.86 -0.12375 71 -0.1875 C78.37214844 -0.21481201 85.74429687 -0.24212402 93.33984375 -0.27026367 C102.40820312 -0.28381348 102.40820312 -0.28381348 106.66625977 -0.28633118 C109.61229361 -0.28910312 112.55816191 -0.30025236 115.50415039 -0.31672668 C119.28193204 -0.33756703 123.05947891 -0.3434258 126.8373127 -0.33921683 C128.85104098 -0.34050346 130.86474435 -0.35645581 132.87840271 -0.37328625 C156.51343316 -0.29395205 179.176943 7.23344957 197 23 C197.92039062 23.81339844 198.84078125 24.62679688 199.7890625 25.46484375 C213.08947882 37.9408541 219.75770996 52.85611648 220.46875 71.07836914 C220.73454508 91.67541167 213.44759223 110.16131052 199 125 C195.48944241 128.19470065 191.78342846 131.13590929 188 134 C191.34995552 136.72825206 194.77466226 139.27197762 198.3125 141.75 C214.00333466 153.21880284 223.04713502 168.25629107 227.3125 187.1875 C230.50991824 208.03220737 227.01252659 228.8370122 214.70922852 246.20849609 C199.51896716 266.71857958 177.4469305 279.09539656 152.6875 284.1875 C104.2617121 291.1054697 46.60628134 285.49059244 0 285 C0 190.95 0 96.9 0 0 Z M66 53 C66 72.8 66 92.6 66 113 C75.52875 113.04125 85.0575 113.0825 94.875 113.125 C99.35876221 113.15231201 99.35876221 113.15231201 103.93310547 113.18017578 C106.32779766 113.18602227 108.72249185 113.19111746 111.1171875 113.1953125 C112.33994385 113.20554443 113.5627002 113.21577637 114.82250977 113.22631836 C126.40961718 113.22865872 137.16329798 112.31897119 146.01171875 104.140625 C151.99215463 97.67122267 154.98556753 90.83266984 155 82 C154.25908075 73.32450915 151.13824312 66.67876392 144.75 60.75 C137.30688002 54.79874721 129.2173526 52.86663006 119.81103516 52.88647461 C118.59359619 52.88659546 117.37615723 52.88671631 116.12182617 52.88684082 C114.22460815 52.89451477 114.22460815 52.89451477 112.2890625 52.90234375 C111.11561279 52.90335083 109.94216309 52.90435791 108.7331543 52.90539551 C104.36375954 52.9106143 99.99437876 52.92457555 95.625 52.9375 C85.84875 52.958125 76.0725 52.97875 66 53 Z M66 165 C66 185.79 66 206.58 66 228 C81.46875 228.0928125 81.46875 228.0928125 97.25 228.1875 C100.48200195 228.21481201 103.71400391 228.24212402 107.04394531 228.27026367 C109.63866809 228.27903497 112.23339503 228.28667738 114.828125 228.29296875 C115.4851239 228.30080887 116.1421228 228.30864899 116.81903076 228.31672668 C130.05246072 228.46647202 141.94489132 227.28576763 152 218 C158.36625074 210.40540627 160.49193417 203.1667625 160.3125 193.3203125 C159.54847764 185.2025749 156.02081624 178.46203979 150 173 C139.95359713 164.89663768 128.10379621 164.56351399 115.70703125 164.70703125 C114.26544135 164.71264082 112.82384564 164.71690447 111.38224792 164.71989441 C107.62571853 164.73123634 103.86954857 164.76060864 100.11315918 164.79400635 C95.58590877 164.83039826 91.05853678 164.84391926 86.53118134 164.86136627 C79.68720582 164.89025501 72.84401573 164.94781462 66 165 Z " fill="#464646" transform="translate(1425,277)"/>
<path d="M0 0 C152.42774621 0 152.42774621 0 170.8125 7.1875 C171.584729 7.48301758 172.35695801 7.77853516 173.15258789 8.08300781 C186.39264313 13.35667002 197.02599608 20.91102197 207 31 C207.81210938 31.80179687 208.62421875 32.60359375 209.4609375 33.4296875 C225.79096932 50.42852608 232.5477846 73.40329066 232.35351562 96.56103516 C231.7552692 118.76025077 223.63593848 138.32440155 209 155 C208.34644531 155.74894531 207.69289063 156.49789062 207.01953125 157.26953125 C199.30811422 165.53073036 189.29366475 172.32791205 179 177 C178.34 177 177.68 177 177 177 C185.49236942 190.63447217 194.03584422 204.23339812 202.671875 217.77734375 C209.05991529 227.79595711 215.40898202 237.83910667 221.6953125 247.921875 C222.33146484 248.9420874 222.96761719 249.9622998 223.62304688 251.01342773 C224.90637928 253.07234912 226.18894336 255.13174961 227.47070312 257.19165039 C230.4020806 261.89121467 233.35492361 266.57132417 236.3984375 271.19921875 C236.91462646 271.98474121 237.43081543 272.77026367 237.96264648 273.57958984 C238.91940169 275.0281055 239.8821165 276.47270907 240.85180664 277.91259766 C244 282.67333937 244 282.67333937 244 286 C234.32516694 286.20874464 224.65111134 286.36854817 214.97451591 286.46630955 C210.48089821 286.51323712 205.98882336 286.57685456 201.49609375 286.67895508 C197.15821371 286.77691694 192.8218149 286.83059099 188.48291397 286.85389519 C186.82973022 286.87049592 185.1766256 286.90291739 183.52407455 286.95157051 C170.59530969 287.31698883 170.59530969 287.31698883 166.74111938 284.13520813 C165.17031226 281.81621663 164.0651109 279.58500293 163 277 C162.37432129 276.01136963 161.74864258 275.02273926 161.10400391 274.00415039 C160.56694824 273.12750732 160.02989258 272.25086426 159.4765625 271.34765625 C158.8563623 270.33743408 158.23616211 269.32721191 157.59716797 268.28637695 C156.94635254 267.22249756 156.29553711 266.15861816 155.625 265.0625 C154.92481871 263.92070863 154.22445671 262.77902806 153.52392578 261.63745117 C152.07193687 259.27107099 150.62071838 256.90422076 149.16992188 254.53710938 C146.41205023 250.03930619 143.64282321 245.54851149 140.87451172 241.05712891 C134.50630935 230.72337927 128.16618755 220.37310846 121.86669922 209.99731445 C117.60537318 202.98062839 113.30275994 195.9919849 109 189 C95.14 188.67 81.28 188.34 67 188 C67 220.34 67 252.68 67 286 C44.89 286 22.78 286 0 286 C0 191.62 0 97.24 0 0 Z M67 58 C67 81.76 67 105.52 67 130 C77.126875 130.0825 87.25375 130.165 97.6875 130.25 C100.85819092 130.28641602 104.02888184 130.32283203 107.2956543 130.36035156 C109.84683559 130.37204879 112.39802443 130.38223816 114.94921875 130.390625 C116.24299438 130.41108887 117.53677002 130.43155273 118.86975098 130.45263672 C133.04065714 130.4579989 144.81229834 126.90248007 155.25 117.25 C162.21163024 110.01482829 164.35664217 101.50018247 164.2109375 91.6796875 C163.48308404 82.43325278 159.57685428 74.51440207 152.99609375 68.0234375 C147.54227886 63.43794019 141.79806467 60.99124414 135 59 C134.41937805 58.82235611 133.8387561 58.64471222 133.24053955 58.46168518 C130.34709508 57.86546253 127.62591194 57.88065765 124.67089844 57.88647461 C122.72256104 57.88665588 122.72256104 57.88665588 120.73486328 57.88684082 C119.35970003 57.89187586 117.98453725 57.89704241 116.609375 57.90234375 C115.35527832 57.90335083 114.10118164 57.90435791 112.80908203 57.90539551 C108.12271206 57.91062899 103.43635511 57.92459025 98.75 57.9375 C83.03375 57.9684375 83.03375 57.9684375 67 58 Z " fill="#464646" transform="translate(2174,277)"/>
<path d="M0 0 C152.42774621 0 152.42774621 0 170.8125 7.1875 C171.584729 7.48301758 172.35695801 7.77853516 173.15258789 8.08300781 C186.39264313 13.35667002 197.02599608 20.91102197 207 31 C207.81210938 31.80179687 208.62421875 32.60359375 209.4609375 33.4296875 C225.79096932 50.42852608 232.5477846 73.40329066 232.35351562 96.56103516 C231.7552692 118.76025077 223.63593848 138.32440155 209 155 C208.34644531 155.74894531 207.69289063 156.49789062 207.01953125 157.26953125 C199.30811422 165.53073036 189.29366475 172.32791205 179 177 C178.34 177 177.68 177 177 177 C185.49236942 190.63447217 194.03584422 204.23339812 202.671875 217.77734375 C209.05991529 227.79595711 215.40898202 237.83910667 221.6953125 247.921875 C222.33146484 248.94216797 222.96761719 249.96246094 223.62304688 251.01367188 C224.9060864 253.07196186 226.18864616 255.13055099 227.47070312 257.18945312 C231.83848108 264.18787617 236.2816605 271.13225209 240.85180664 278.00048828 C244 282.78545153 244 282.78545153 244 285 C234.31714795 285.48906707 224.63860305 285.86083412 214.94604969 286.08805561 C210.44337115 286.19719523 205.94919514 286.34473465 201.45141602 286.58422852 C172.5304546 288.08387705 172.5304546 288.08387705 165.17715454 283.07849121 C160.69367306 278.25410991 158.22494468 272.72691505 155.99099731 266.5920105 C154.63965832 263.05750559 152.81473809 260.22082533 150.72265625 257.0703125 C149.5021825 255.08880132 148.28212488 253.10703377 147.0625 251.125 C146.39629639 250.04259033 145.73009277 248.96018066 145.04370117 247.8449707 C140.03707677 239.70319632 135.06416241 231.54132224 130.10253906 223.37207031 C125.49967518 215.80132643 120.84735535 208.26195322 116.1730957 200.73510742 C115.4164563 199.51658081 115.4164563 199.51658081 114.64453125 198.2734375 C114.20471924 197.56622559 113.76490723 196.85901367 113.31176758 196.13037109 C111.85543581 193.76522108 110.42904258 191.38173763 109 189 C95.14 188.67 81.28 188.34 67 188 C67 220.01 67 252.02 67 285 C44.89 285 22.78 285 0 285 C0 190.95 0 96.9 0 0 Z M67 58 C67 81.76 67 105.52 67 130 C77.126875 130.0825 87.25375 130.165 97.6875 130.25 C100.85819092 130.28641602 104.02888184 130.32283203 107.2956543 130.36035156 C109.84683559 130.37204879 112.39802443 130.38223816 114.94921875 130.390625 C116.24299438 130.41108887 117.53677002 130.43155273 118.86975098 130.45263672 C133.04065714 130.4579989 144.81229834 126.90248007 155.25 117.25 C162.21163024 110.01482829 164.35664217 101.50018247 164.2109375 91.6796875 C163.48308404 82.43325278 159.57685428 74.51440207 152.99609375 68.0234375 C147.54227886 63.43794019 141.79806467 60.99124414 135 59 C134.41937805 58.82235611 133.8387561 58.64471222 133.24053955 58.46168518 C130.34709508 57.86546253 127.62591194 57.88065765 124.67089844 57.88647461 C122.72256104 57.88665588 122.72256104 57.88665588 120.73486328 57.88684082 C119.35970003 57.89187586 117.98453725 57.89704241 116.609375 57.90234375 C115.35527832 57.90335083 114.10118164 57.90435791 112.80908203 57.90539551 C108.12271206 57.91062899 103.43635511 57.92459025 98.75 57.9375 C83.03375 57.9684375 83.03375 57.9684375 67 58 Z " fill="#474747" transform="translate(1135,277)"/>
<path d="M0 0 C20.46 0 40.92 0 62 0 C62 115.17 62 230.34 62 349 C78.17 348.67 94.34 348.34 111 348 C114.96 340.08 118.92 332.16 123 324 C123.66 324 124.32 324 125 324 C125 324.66 125 325.32 125 326 C125.52078125 326.23460937 126.0415625 326.46921875 126.578125 326.7109375 C129.14373643 328.07650487 131.48750614 329.66979283 133.87280273 331.32592773 C139.85925929 335.46872073 145.91559425 339.19510162 152.4375 342.4375 C153.39317871 342.91340576 153.39317871 342.91340576 154.36816406 343.39892578 C163.23181549 347.692473 172.47211447 350.55246977 182 353 C183.15113281 353.30421875 184.30226563 353.6084375 185.48828125 353.921875 C207.24614216 358.71176754 232.56812329 357.81886975 254 352 C255.61648437 351.58427734 255.61648437 351.58427734 257.265625 351.16015625 C267.84185259 348.02485381 279.33162823 342.98958303 288.4453125 336.71875 C291 335 291 335 293 335 C293 363.71 293 392.42 293 422 C196.31 422 99.62 422 0 422 C0 282.74 0 143.48 0 0 Z " fill="#FE0000" transform="translate(233,213)"/>
<path d="M0 0 C22.11 0 44.22 0 67 0 C67.01458252 5.36894531 67.02916504 10.73789062 67.04418945 16.26953125 C67.09460131 34.03916581 67.16105981 51.80871387 67.23571491 69.57826233 C67.28057397 80.34838885 67.32001118 91.11848304 67.34643555 101.88867188 C67.369496 111.28206036 67.40298311 120.67534565 67.44870156 130.06865215 C67.47252575 135.03680103 67.49132502 140.00484839 67.49761391 144.97305298 C67.50371403 149.66149304 67.52388899 154.34967373 67.55427551 159.03801727 C67.56297753 160.74703919 67.56679485 162.45609511 67.56500816 164.16513824 C67.55076551 184.09787517 69.94314582 201.57250577 84.35546875 216.58984375 C88.24198748 220.13191474 92.30209472 222.67363345 97 225 C98.1446875 225.58201172 98.1446875 225.58201172 99.3125 226.17578125 C114.27740507 233.32048419 134.4643844 233.67064749 150.03515625 228.25390625 C164.66842132 222.06513407 176.17527639 212.88529475 182.28125 197.84375 C184.89382633 190.30460117 186.14697484 183.31527095 186.15821838 175.33108521 C186.16315636 174.57866857 186.16809434 173.82625194 186.17318195 173.05103481 C186.18848727 170.54069851 186.19689859 168.03038764 186.20532227 165.52001953 C186.21490627 163.71619953 186.22491666 161.91238174 186.23532104 160.10856628 C186.26231954 155.21859591 186.28335644 150.32861593 186.30332303 145.43861246 C186.3252138 140.32566491 186.35258736 135.21274679 186.37937927 130.099823 C186.42926438 120.42085507 186.47421871 110.74187076 186.51740164 101.06287086 C186.56680977 90.04236573 186.62171463 79.02189014 186.67708123 68.00141358 C186.79083708 45.33430193 186.89696443 22.66716309 187 0 C209.11 0 231.22 0 254 0 C254.06786498 24.74009123 254.12306775 49.48010644 254.15543652 74.2202673 C254.17086905 85.708972 254.19188909 97.19761452 254.22631836 108.6862793 C254.25633176 118.70624271 254.27560123 128.72616107 254.28226548 138.7461682 C254.2861576 144.0458262 254.29522837 149.34535536 254.31719017 154.64497185 C254.33774447 159.64605937 254.34379602 164.64696651 254.33932304 169.64809227 C254.34013986 171.47121414 254.34599156 173.29434284 254.35761642 175.11742783 C254.54687447 206.36420286 245.05375068 233.26418326 223.3125 256.125 C196.9276505 281.48240209 162.48936649 291.54799675 126.5 292.25 C88.6597157 291.4657454 54.12978463 279.90024435 27.19506836 252.61303711 C10.41850408 234.93192345 -0.21697019 210.39642877 -0.12025452 185.91348267 C-0.12110894 185.11614696 -0.12196337 184.31881125 -0.12284368 183.49731386 C-0.12448621 180.83493743 -0.11899725 178.1726245 -0.11352539 175.51025391 C-0.11324323 173.59806317 -0.11340182 171.68587232 -0.1139679 169.77368164 C-0.11425473 164.5882424 -0.10837628 159.40282631 -0.10139394 154.21739244 C-0.09514157 148.79616444 -0.09455511 143.37493589 -0.09336853 137.95370483 C-0.09026078 127.69035221 -0.08205486 117.42701025 -0.07201904 107.16366231 C-0.06084067 95.4781363 -0.0553431 83.79260978 -0.05032361 72.10707974 C-0.0398718 48.07137923 -0.0215332 24.03569332 0 0 Z " fill="#464646" transform="translate(2461,277)"/>
<path d="M0 0 C21.45 0 42.9 0 65 0 C72.59210493 16.93623406 80.1548806 33.86122248 87.5 50.90234375 C91.39323541 59.92427272 95.32137653 68.93093829 99.25 77.9375 C99.97364314 79.59683794 100.6972759 81.25618041 101.42089844 82.91552734 C102.88398578 86.27040125 104.34722615 89.62520836 105.81054688 92.97998047 C109.02220093 100.34326312 112.23180347 107.70743996 115.44152832 115.07156372 C117.21093176 119.13108046 118.98047296 123.19053714 120.75 127.25 C121.45833399 128.87499971 122.16666732 130.49999971 122.875 132.125 C123.225625 132.929375 123.57625 133.73375 123.9375 134.5625 C144.12500003 180.87500008 144.12500003 180.87500008 145.18743896 183.31236267 C145.89597312 184.93782158 146.6045099 186.56327934 147.31304932 188.18873596 C149.08083164 192.24420525 150.84856866 196.29969428 152.61621094 200.35522461 C156.2066669 208.59272833 159.79793771 216.82987543 163.390625 225.06640625 C167.26201838 233.94220765 171.13069717 242.81918864 174.99700928 251.69720459 C175.99982587 253.9996002 177.00306372 256.30181191 178.00634766 258.60400391 C179.57130542 262.19563992 181.13428647 265.78812971 182.69567871 269.38131714 C183.26918528 270.7003782 183.84331308 272.01916935 184.41809082 273.337677 C185.19840558 275.12801968 185.97623193 276.91944632 186.75390625 278.7109375 C187.19033447 279.71431152 187.6267627 280.71768555 188.07641602 281.75146484 C189 284 189 284 189 285 C164.58 285 140.16 285 115 285 C108.07 267.51 101.14 250.02 94 232 C54.07 232 14.14 232 -27 232 C-33.27 248.17 -39.54 264.34 -46 281 C-46.66 282.32 -47.32 283.64 -48 285 C-71.76 285 -95.52 285 -120 285 C-108.05555556 256.33333333 -108.05555556 256.33333333 -104.0625 246.8125 C-103.80398254 246.196026 -103.54546509 245.579552 -103.27911377 244.94439697 C-95.71013977 226.89901607 -88.08766106 208.87616136 -80.47167969 190.85058594 C-76.87340747 182.33383759 -73.27749423 173.8160933 -69.68145752 165.29840088 C-67.70440682 160.6155576 -65.72719507 155.93278232 -63.75 151.25 C-62.95833257 149.37500032 -62.1666659 147.50000032 -61.375 145.625 C-53.45833333 126.875 -45.54166667 108.125 -37.625 89.375 C-37.2332106 88.44707642 -36.8414212 87.51915283 -36.4377594 86.56311035 C-35.6452319 84.68607423 -34.85270057 82.80903972 -34.06016541 80.93200684 C-32.09413807 76.27567277 -30.12817518 71.61931152 -28.16235352 66.96289062 C-24.4432144 58.1535999 -20.72337697 49.34460568 -17.00143433 40.53649902 C-15.23802221 36.36321932 -13.47495444 32.18979418 -11.71191406 28.01635742 C-10.86915051 26.02165556 -10.02621713 24.02702545 -9.18310547 22.0324707 C-8.0161752 19.27182706 -6.84982349 16.51093964 -5.68359375 13.75 C-5.33868393 12.93446655 -4.99377411 12.11893311 -4.63841248 11.27868652 C-4.31873001 10.52156372 -3.99904755 9.76444092 -3.66967773 8.984375 C-3.39389389 8.33178711 -3.11811005 7.67919922 -2.83396912 7.00683594 C-1.86714878 4.68031119 -0.93568776 2.3392194 0 0 Z M33 78 C29.71029029 85.06684064 26.66783102 92.17738254 23.8828125 99.45703125 C23.50831467 100.42734787 23.13381683 101.39766449 22.74797058 102.39738464 C21.94954864 104.46678412 21.15253593 106.53672778 20.35684204 108.60717773 C18.26138918 114.05966392 16.15599395 119.50830743 14.05078125 124.95703125 C13.6277623 126.05250275 13.20474335 127.14797424 12.76890564 128.27664185 C8.0403043 140.50789389 3.21539212 152.70075821 -1.63037109 164.88598633 C-2.07759773 166.0131884 -2.07759773 166.0131884 -2.53385925 167.16316223 C-3.08712277 168.55747183 -3.64181628 169.95121517 -4.19819641 171.34428406 C-5.46396346 174.08954995 -5.46396346 174.08954995 -6 177 C20.07 177 46.14 177 73 177 C68.20918987 164.18594447 68.20918987 164.18594447 63.2578125 151.4375 C62.93194656 150.61312943 62.60608063 149.78875885 62.27033997 148.93940735 C61.22340052 146.29233874 60.17430128 143.64613316 59.125 141 C58.38741008 139.13697916 57.649862 137.27394175 56.91235352 135.41088867 C49.32426005 116.25422857 41.66991225 97.12402271 34 78 C33.67 78 33.34 78 33 78 Z " fill="#474747" transform="translate(907,277)"/>
<path d="M0 0 C94.05 0 188.1 0 285 0 C285 139.26 285 278.52 285 422 C267.18 422 249.36 422 231 422 C231 307.16 231 192.32 231 74 C214.83 74.33 198.66 74.66 182 75 C179.36 80.28 176.72 85.56 174 91 C172.68 93.31 171.36 95.62 170 98 C166.84325277 96.60212166 164.19512251 94.73514966 161.43530273 92.67504883 C139.76808679 76.5585626 113.05939389 66.96268253 85.90625 66.796875 C84.78156311 66.78832489 84.78156311 66.78832489 83.63415527 66.77960205 C82.05429464 66.77021715 80.474415 66.76364423 78.89453125 66.75976562 C76.533485 66.75013656 74.17334001 66.71908314 71.8125 66.6875 C57.84490378 66.58859916 44.82560652 68.59271549 31.5625 73.125 C30.68924072 73.41850342 29.81598145 73.71200684 28.91625977 74.0144043 C20.10277016 77.10316561 12.0956125 81.39403739 4 86 C2.02 86.99 2.02 86.99 0 88 C0 58.96 0 29.92 0 0 Z " fill="#FE0000" transform="translate(370,213)"/>
<path d="M0 0 C1.4300131 1.17139371 2.8476178 2.35816414 4.25 3.5625 C5.13945312 4.30886719 5.13945312 4.30886719 6.046875 5.0703125 C19.14897462 17.03048601 26.83930126 34.95250255 27.6796875 52.4296875 C28.04256295 65.91509033 27.92308399 78.16255306 22.25 90.5625 C21.75371094 91.68011719 21.25742187 92.79773438 20.74609375 93.94921875 C12.42078824 110.90074443 -1.155367 123.55780512 -18.75 130.5625 C-21.47668159 131.45442423 -24.22200562 132.22255834 -27 132.9375 C-27.973927 133.18935059 -27.973927 133.18935059 -28.9675293 133.44628906 C-43.76704132 136.92587473 -58.04349679 132.18030768 -70.75 124.5625 C-74.29859866 122.1050217 -77.54959134 119.45571411 -80.75 116.5625 C-81.45769531 115.93601562 -82.16539062 115.30953125 -82.89453125 114.6640625 C-88.2786012 109.61971398 -92.06899758 103.92658603 -95.75 97.5625 C-96.14058594 96.91796875 -96.53117187 96.2734375 -96.93359375 95.609375 C-105.90216769 79.55667456 -107.44771124 57.01916477 -102.65625 39.47265625 C-102.3571875 38.51230469 -102.058125 37.55195313 -101.75 36.5625 C-101.4715625 35.63308594 -101.193125 34.70367187 -100.90625 33.74609375 C-94.71978979 15.00005269 -81.88445308 0.90916801 -64.48828125 -8.12109375 C-41.88305743 -18.98836968 -19.72979815 -14.8222181 0 0 Z " fill="#FE0000" transform="translate(486.75,364.4375)"/>
</svg>
